<?xml version="1.0" encoding="utf-8"?>
<!-- Generator: Adobe Illustrator 23.0.3, SVG Export Plug-In . SVG Version: 6.00 Build 0)  -->
<svg version="1.1" id="Bouton" xmlns="http://www.w3.org/2000/svg" xmlns:xlink="http://www.w3.org/1999/xlink" x="0px" y="0px"
	 viewBox="0 0 240 75" style="enable-background:new 0 0 240 75;" xml:space="preserve">
<style type="text/css">
	.st0{fill:#F7881F;stroke:#AD0000;stroke-width:2;stroke-linecap:round;stroke-miterlimit:10;}
	.st1{clip-path:url(#SVGID_2_);fill:#FDCF08;}
	.st2{clip-path:url(#SVGID_2_);fill:#FBBE0E;}
	.st3{clip-path:url(#SVGID_2_);fill:#FFFF9D;}
	.st4{fill:#FBBE0E;}
	.st5{fill:#FFFF9D;}
	.st6{fill:#FEDD06;stroke:#E20000;stroke-miterlimit:10;}
	.st7{fill:none;stroke:#960404;stroke-miterlimit:10;}
	.st8{fill:none;stroke:#FFFFBB;stroke-miterlimit:10;}
	.st9{fill:none;stroke:#FFF276;stroke-width:0.7;stroke-miterlimit:10;}
</style>
<path class="st0" d="M212.5,62h-185C13.5,62,2,50.5,2,36.5v0C2,22.5,13.5,11,27.5,11h185c14,0,25.5,11.5,25.5,25.5v0
	C238,50.5,226.5,62,212.5,62z"/>
<g id="Calque_3">
	<g>
		<defs>
			<path id="SVGID_1_" d="M211.3,62.5H28C14,62.5,2.5,51,2.5,37v0C2.5,23,14,11.5,28,11.5h183.3c14,0,25.5,11.5,25.5,25.5v0
				C236.8,51,225.3,62.5,211.3,62.5z"/>
		</defs>
		<clipPath id="SVGID_2_">
			<use xlink:href="#SVGID_1_"  style="overflow:visible;"/>
		</clipPath>
		<ellipse class="st1" cx="46.5" cy="27.5" rx="75.1" ry="13.5"/>
		<path class="st2" d="M14.9,39.8c0,0,26.6-10.8,82.9-8.8h12.8l-2.7,4.3C107.9,35.3,77.2,44.5,14.9,39.8z"/>
		<ellipse class="st3" cx="67.2" cy="19" rx="71.1" ry="9"/>
	</g>
	<path class="st4" d="M120.4,26l115.4,10c0,0,2,19-19.9,24C215.9,60,138.3,54,120.4,26z"/>
</g>
<ellipse class="st5" cx="201" cy="56.5" rx="4" ry="2.5"/>
<ellipse class="st5" cx="50.8" cy="49.5" rx="8" ry="5.5"/>
<ellipse class="st5" cx="67.7" cy="52.5" rx="5" ry="3.5"/>
<path class="st5" d="M224.4,30h-74.6c-1.4,0-2.5-1.1-2.5-2.5v-1c0-1.4,1.1-2.5,2.5-2.5h74.6c1.4,0,2.5,1.1,2.5,2.5v1
	C226.9,28.9,225.7,30,224.4,30z"/>
<ellipse class="st5" cx="197.5" cy="15.5" rx="3.5" ry="2.5"/>
<ellipse class="st5" cx="206" cy="20.5" rx="2" ry="1.5"/>
<ellipse class="st5" cx="9.5" cy="29.5" rx="3.5" ry="2.5"/>
<ellipse class="st5" cx="215.4" cy="44" rx="10.4" ry="7"/>
<path class="st6" d="M143.6,40.7l-37.4,17.1c-3,1.4-6.4-0.8-6.4-4.1V19.5c0-3.3,3.4-5.5,6.4-4.1l37.4,17.1
	C147.1,34.2,147.1,39.1,143.6,40.7z"/>
<path class="st7" d="M143.8,41.2l-38.4,17.6c-3,1.4-6.4-0.8-6.4-4.1V19.5c0-3.3,3.4-5.5,6.4-4.1l38.4,17.6
	C147.3,34.7,147.3,39.6,143.8,41.2z"/>
<path class="st8" d="M142.7,39.7l-37.4,17.1c-3,1.4-6.4-0.8-6.4-4.1V18.5c0-3.3,3.4-5.5,6.4-4.1l37.4,17.1
	C146.2,33.2,146.2,38.1,142.7,39.7z"/>
<ellipse class="st5" cx="183.1" cy="56" rx="4.5" ry="4.5"/>
<path class="st9" d="M212.5,61H27C13,61,1.5,49.5,1.5,35.5v0C1.5,21.5,13,10,27,10h185.5c14,0,25.5,11.5,25.5,25.5v0
	C238,49.5,226.5,61,212.5,61z"/>
</svg>
