<?xml version="1.0" encoding="utf-8"?>
<!-- Generator: Adobe Illustrator 23.0.3, SVG Export Plug-In . SVG Version: 6.00 Build 0)  -->
<svg version="1.1" xmlns="http://www.w3.org/2000/svg" xmlns:xlink="http://www.w3.org/1999/xlink" x="0px" y="0px"
	 viewBox="0 0 340 175" style="enable-background:new 0 0 340 175;" xml:space="preserve">
<style type="text/css">
	.st0{display:none;}
	.st1{fill:#7CFFF9;}
	.st2{fill:#84C3E2;}
	.st3{fill:#7CFFF9;stroke:#7CFFF9;stroke-width:3;stroke-miterlimit:10;}
	.st4{fill:url(#SVGID_1_);}
</style>
<g id="Calque_1" class="st0">
	
		<image style="display:inline;overflow:visible;" width="1920" height="1080" xlink:href="../Logos/Fond.jpg"  transform="matrix(0.5031 0 0 0.6639 -19 -333)">
	</image>
</g>
<g id="Calque_2">
	<path class="st1" d="M14,123c0,0,4-16,19-8c0,0,7-16,16-9c0,0,16-18,26-7c0,0,12-38,41-15c0,0-3-20,9-23c0,0,14-1,13,15
		c0,0,3-38,32-24c0,0,7,5,4,14c0,0,18-26,21,2c0,0,7-7,9,3c0,0,13-2,14,10c0,0,12-5,10,8c0,0,6-4,5,8l4,1c0,0,7-14,13,0
		c0,0,6-22,17-12c0,0,4-1,4,11c0,0,10-7,10,4c0,0,17-4,14,9c0,0,11-3,9,7c0,0,7-1,5,9c0,0,8-5,11,9c0,0,24,17-106,14
		C214,149,1,178,14,123z"/>
	<path class="st2" d="M18,125.5c0,0,3.9-15,18.5-7.5c0,0,6.8-15,15.5-8.4c0,0,15.5-16.9,25.3-6.6c0,0,11.7-35.6,39.8-14.1
		c0,0-2.9-18.7,8.7-21.6c0,0,13.6-0.9,12.6,14.1c0,0,2.9-35.6,31.1-22.5c0,0,6.8,4.7,3.9,13.1c0,0,17.5-24.4,20.4,1.9
		c0,0,6.8-6.6,8.7,2.8c0,0,12.6-1.9,13.6,9.4c0,0,11.7-4.7,9.7,7.5c0,0,5.8-3.7,4.9,7.5l3.9,0.9c0,0,6.8-13.1,12.6,0
		c0,0,5.8-20.6,16.5-11.2c0,0,3.9-0.9,3.9,10.3c0,0,9.7-6.6,9.7,3.7c0,0,16.5-3.7,13.6,8.4c0,0,10.7-2.8,8.7,6.6
		c0,0,6.8-0.9,4.9,8.4c0,0,7.8-4.7,10.7,8.4c0,0,23.3,15.9-103,13.1C212.3,149.8,5.4,177,18,125.5z"/>
	<path class="st1" d="M18,128.4c0,0,3.9-12.2,18.5-6.1c0,0,6.8-12.2,15.5-6.8c0,0,15.5-13.7,25.3-5.3c0,0,11.7-28.9,39.8-11.4
		c0,0-2.9-15.2,8.7-17.5c0,0,13.6-0.8,12.6,11.4c0,0,2.9-28.9,31.1-18.3c0,0,6.8,3.8,3.9,10.7c0,0,17.5-19.8,20.4,1.5
		c0,0,6.8-5.3,8.7,2.3c0,0,12.6-1.5,13.6,7.6c0,0,11.7-3.8,9.7,6.1c0,0,5.8-3,4.9,6.1l3.9,0.8c0,0,6.8-10.7,12.6,0
		c0,0,5.8-16.7,16.5-9.1c0,0,3.9-0.8,3.9,8.4c0,0,9.7-5.3,9.7,3c0,0,16.5-3,13.6,6.8c0,0,10.7-2.3,8.7,5.3c0,0,6.8-0.8,4.9,6.8
		c0,0,7.8-3.8,10.7,6.8c0,0,23.3,12.9-103,10.7C212.3,148.2,5.4,170.3,18,128.4z"/>
	<path class="st2" d="M16,133c0,0,3.9-9.1,18.5-4.5c0,0,6.8-9.1,15.5-5.1c0,0,15.5-10.2,25.3-4c0,0,11.7-21.5,39.8-8.5
		c0,0-2.9-11.3,8.7-13c0,0,13.6-0.6,12.6,8.5c0,0,2.9-21.5,31.1-13.6c0,0,6.8,2.8,3.9,7.9c0,0,17.5-14.7,20.4,1.1c0,0,6.8-4,8.7,1.7
		c0,0,12.6-1.1,13.6,5.7c0,0,11.7-2.8,9.7,4.5c0,0,5.8-2.3,4.9,4.5l3.9,0.6c0,0,6.8-7.9,12.6,0c0,0,5.8-12.5,16.5-6.8
		c0,0,3.9-0.6,3.9,6.2c0,0,9.7-4,9.7,2.3c0,0,16.5-2.3,13.6,5.1c0,0,10.7-1.7,8.7,4c0,0,6.8-0.6,4.9,5.1c0,0,7.8-2.8,10.7,5.1
		c0,0,23.3,9.6-103,7.9C210.3,147.7,3.4,164.1,16,133z"/>
	<g id="Calque_3">
		<path class="st1" d="M176,128c0,0,20.9-24,34-6C210,122,202.2,113,176,128z"/>
		<path class="st1" d="M212.9,127.8c0,0,25.4-15.2,28.2,5.6C241.1,133.4,238.7,122.6,212.9,127.8z"/>
		<path class="st3" d="M133.7,113.8c0,0,24.4-16.7,28.4,3.9C162,117.8,159,107.1,133.7,113.8z"/>
		<path class="st3" d="M119.5,125.8c0,0-23-18.5-28.6,1.7C90.9,127.6,94.7,117.2,119.5,125.8z"/>
		<path class="st3" d="M67.5,129.1c0,0,16.2-11.7,22.7,0.5C90.2,129.7,86.1,123.4,67.5,129.1z"/>
	</g>
	<linearGradient id="SVGID_1_" gradientUnits="userSpaceOnUse" x1="169" y1="157" x2="169" y2="52">
		<stop  offset="0" style="stop-color:#E6E6E6"/>
		<stop  offset="1" style="stop-color:#00FFFF;stop-opacity:0"/>
	</linearGradient>
	<path class="st4" d="M11.6,124.2c0,0,4.1-15.6,19.5-7.8c0,0,7.2-15.6,16.4-8.8c0,0,16.4-17.5,26.6-6.8c0,0,12.3-37,42-14.6
		c0,0-3.1-19.5,9.2-22.4c0,0,14.3-1,13.3,14.6c0,0,3.1-37,32.8-23.4c0,0,7.2,4.9,4.1,13.6c0,0,18.4-25.3,21.5,1.9
		c0,0,7.2-6.8,9.2,2.9c0,0,13.3-1.9,14.3,9.7c0,0,12.3-4.9,10.2,7.8c0,0,6.1-3.9,5.1,7.8l4.1,1c0,0,7.2-13.6,13.3,0
		c0,0,6.1-21.4,17.4-11.7c0,0,4.1-1,4.1,10.7c0,0,10.2-6.8,10.2,3.9c0,0,17.4-3.9,14.3,8.8c0,0,11.3-2.9,9.2,6.8c0,0,7.2-1,5.1,8.8
		c0,0,8.2-4.9,11.3,8.8c0,0,24.6,16.6-108.6,13.6C216.6,149.6-1.7,177.8,11.6,124.2z"/>
</g>
</svg>
