<?xml version="1.0" encoding="utf-8"?>
<!-- Generator: Adobe Illustrator 23.0.3, SVG Export Plug-In . SVG Version: 6.00 Build 0)  -->
<svg version="1.1" id="LOGO" xmlns="http://www.w3.org/2000/svg" xmlns:xlink="http://www.w3.org/1999/xlink" x="0px" y="0px"
	 viewBox="0 0 200 200" style="enable-background:new 0 0 200 200;" xml:space="preserve">
<style type="text/css">
	.st0{fill:#FFFF00;}
	.st1{stroke:#FFFF00;stroke-width:0.75;stroke-miterlimit:10;}
	.st2{fill:#FF9E10;stroke:#FFFF00;stroke-width:6;stroke-miterlimit:10;}
	.st3{fill:#FF9E10;stroke:#000000;stroke-width:3;stroke-miterlimit:10;}
	.st4{clip-path:url(#SVGID_2_);fill:#FFD400;}
	.st5{clip-path:url(#SVGID_2_);fill:#FFB000;}
	.st6{clip-path:url(#SVGID_2_);fill:#FF7900;}
	.st7{clip-path:url(#SVGID_2_);fill:#F5CDAB;stroke:#000000;stroke-miterlimit:10;}
	.st8{clip-path:url(#SVGID_2_);fill:#0C0601;}
	.st9{fill:#020202;}
	.st10{clip-path:url(#SVGID_6_);fill:#FF7900;}
	.st11{fill:#FFFFFF;}
	.st12{fill:#333132;}
	.st13{fill:#FFB000;}
	.st14{fill:#333132;stroke:#000000;stroke-miterlimit:10;}
</style>
<g id="BRAS">
	<g>
		<g>
			<path class="st0" d="M141.3,86.9c5.2,0,10.1,2.3,15.2,3.1c3.4,0.5,18.2,0.8,15.8,7.5c-0.9,2.4-4.9,4.9-6.9,6.2
				c-2.4,1.6-5.1,2.7-7.8,3.7c-5,1.9-9.8,4-14.3,7c1.5,0.6,2.9,1.2,4.4,1.8c-0.6-1.1-0.9-2.2-1-3.5c-1.7,0.7-3.4,1.4-5.1,2.1
				c0.2,0.7,0.5,1.4,0.7,2.2c1.7-0.4,3.3-0.9,5-1.3c-0.2-0.2-0.4-0.4-0.6-0.6c-1.3,1-2.5,1.9-3.8,2.9c2,0.4,3.1,1.5,3.5,3.3
				c1.2-1.2,2.5-2.5,3.7-3.7c-1.8-0.3-2.5-4-3.5-5.3c-1.1-1.5-2.5-2.2-4.3-2.6c-1.9-0.4-3.8,0.9-3.8,2.9c0,5.7,4.8,8.4,9.9,8.8
				c3.9,0.3,3.8-5.7,0-6c-2.1,0.2-3.4-0.8-3.9-2.8c-1.3,1-2.5,1.9-3.8,2.9c1.7,0.4,2.4,4.1,3.4,5.4c1.2,1.5,2.5,2.2,4.4,2.6
				c2.2,0.4,4.3-1.3,3.7-3.7c-1-4-3.9-6.2-7.7-7.5c-1.7-0.6-4,1-3.8,2.9c0.2,2.1,0.8,3.5,2.4,4.9c1.5,1.3,4.6,1.1,5-1.3
				c0.5-3.3-0.1-5.5-2.3-8c-1.6-1.9-5.4-0.4-5.1,2.1c0.2,1.8,0.5,3.3,1.2,5.1c0.7,1.7,2.6,3,4.4,1.8c7.2-4.6,15.9-6.3,22.9-11.1
				c4.4-3.1,10.9-8,9.6-14.2c-1.3-6.1-8.6-8.3-13.9-9.2c-4-0.6-8.1-0.9-12.1-1.9c-3.9-1-7.4-2.2-11.4-2.2
				C137.5,80.9,137.5,86.9,141.3,86.9L141.3,86.9z"/>
		</g>
	</g>
	<g>
		<g>
			<path d="M141.4,85.3c5.5,0,10.7,2.5,16.1,3.3c4.4,0.6,19.8,1.2,16.1,9.7c-2.3,5.3-10.8,8.7-15.7,10.5c-4.9,1.8-9.5,3.9-14,6.7
				c0.7,0.3,1.5,0.6,2.2,0.9c-0.6-1.2-0.9-2.5-1-3.9c-0.9,0.4-1.7,0.7-2.6,1.1c0.4,1.2,0.7,2.4,1.1,3.6c0.8-0.2,1.7-0.4,2.5-0.7
				c-0.4-0.6-0.7-1.1-1.1-1.7c-0.6,0.5-1.3,1-1.9,1.4c2.5,0.5,4,2,4.6,4.4c0.6-0.6,1.2-1.2,1.8-1.8c-2.5-0.5-3-4.7-4.6-6.4
				c-0.9-1-1.8-1.4-3.2-1.7c-0.9-0.2-1.9,0.4-1.9,1.4c0,4.8,4.1,7,8.4,7.3c1.9,0.2,1.9-2.9,0-3c-2.9,0.1-4.7-1.3-5.4-4.3
				c-0.6,0.5-1.3,1-1.9,1.4c4,0.9,2.8,7.1,7.8,8c1.1,0.2,2.1-0.7,1.8-1.8c-0.9-3.5-3.3-5.4-6.7-6.5c-0.9-0.3-2,0.5-1.9,1.4
				c0.2,1.7,0.6,2.7,1.9,3.8c0.8,0.7,2.3,0.5,2.5-0.7c0.5-2.7-0.1-4.5-1.9-6.6c-0.8-0.9-2.7-0.2-2.6,1.1c0.2,1.7,0.5,3.1,1.1,4.7
				c0.3,0.8,1.3,1.5,2.2,0.9c7.2-4.6,15.9-6.2,22.9-11c3.8-2.6,10-7,9-12.4c-1.1-5.5-8.2-7.4-12.8-8.2c-4-0.7-8.1-0.9-12.1-2
				c-3.7-1-7.1-2.2-11-2.2C139.5,82.3,139.5,85.3,141.4,85.3L141.4,85.3z"/>
		</g>
	</g>
	<g>
		<g>
			<path class="st0" d="M57.2,80.4c-4,0.3-8,0.8-12,0.8c-5.2,0.1-8.1-1.6-9.6-6.6c-2.5-8.1-7.2-18.9-5.7-27.4
				c0.5-2.7-1.9-4.4-4.4-3.4c-0.6,0.3-1.2,0.5-1.8,0.8c1.2,1.6,2.4,3.1,3.6,4.7c1.9-2,3.9-2.7,6.7-2.6c-1-1.3-1.9-2.5-2.9-3.8
				c0.2-0.5-6.4,1.1-7.1,0.9c0.7,0.7,1.4,1.4,2.1,2.1c0,0.5,0,0.9,0,1.4c-1.3-1-2.5-1.9-3.8-2.9c0.4-0.5,0.8-1.1,1.3-1.6
				c1,1,2,2,3,3c1.1-0.4,2.2-0.3,3.3,0.2c3.8,0.9,5.4-4.9,1.6-5.8c-5-1.2-10.4-0.4-10.9,5.6c-0.2,1.7,1.5,2.9,3,3
				c2.9,0.2,4.4-1.7,4.7-4.4c0.2-2.1-2.1-3.2-3.8-2.9c-4.2,0.7-6.9,6.6-1.7,8.2c2.6,0.8,6.4-0.6,9-1.2c2.6-0.6,4.4-1.4,5.2-4
				c0.6-1.9-1-3.7-2.9-3.8c-4.3-0.2-7.9,1.3-10.9,4.3c-2.6,2.6,0.7,6,3.6,4.7c0.6-0.3,1.2-0.5,1.8-0.8c-1.5-1.1-2.9-2.3-4.4-3.4
				c-1,6,0.3,11.5,1.9,17.3c1.5,5.5,2.7,11.6,5.1,16.8c4.8,10.1,17.1,7.3,26.1,6.7C61.1,86.1,61.1,80.1,57.2,80.4L57.2,80.4z"/>
		</g>
	</g>
	<ellipse class="st1" cx="34.3" cy="39" rx="1.8" ry="3.6"/>
	<g>
		<g>
			<path d="M57.2,81.9c-4,0.3-8,0.8-12,0.8c-5.8,0.1-9.3-2-11.1-7.7c-2.6-8.4-7.2-19.4-5.7-28.2c0.2-1.4-1-2.2-2.2-1.7
				c-0.6,0.3-1.2,0.5-1.8,0.8c0.6,0.8,1.2,1.6,1.8,2.4c2.2-2.3,4.6-3.1,7.7-3c-0.5-0.6-1-1.3-1.4-1.9c-0.3,1-3.1,1.1-3.9,1.2
				c-0.6,0.1-1.2,0.2-1.8,0.3c-0.8-0.1-1.2,0.2-1.2,0.9c-0.6-0.5-1.3-1-1.9-1.4c-0.1,0-0.2-0.1-0.2-0.1c0.5,0.5,1,1,1.5,1.5
				c1.5-1.9,3.2-2.3,5.2-1.2c1.9,0.5,2.7-2.4,0.8-2.9c-3.9-0.9-8.6-0.8-9,4.1c-0.1,0.8,0.8,1.4,1.5,1.5c2.1,0.1,3-0.9,3.2-2.9
				c0.1-1.1-1-1.6-1.9-1.4c-2.9,0.5-5.2,3.7-1.7,5.3c2,0.9,6.2-0.7,8.2-1.2c2.1-0.5,3.5-0.9,4.1-3c0.3-1-0.5-1.9-1.4-1.9
				c-3.9-0.1-7.1,1.1-9.9,3.9c-1.3,1.3,0.3,3,1.8,2.4c0.6-0.3,1.2-0.5,1.8-0.8c-0.7-0.6-1.5-1.1-2.2-1.7c-1,5.7,0.4,11,1.9,16.5
				c1.5,5.5,2.6,11.5,5,16.6c4.4,9.3,16.5,6.4,24.7,5.7C59.2,84.8,59.2,81.8,57.2,81.9L57.2,81.9z"/>
		</g>
	</g>
</g>
<g id="CRAYON">
	<path class="st2" d="M58.8,44.6c0,0,43.8-49.6,87.5-1.9c0,0-16.4,80.1-25.5,104.9L93.4,180c0,0-21.9-24.8-23.7-40
		C67.9,124.7,55.1,71.3,58.8,44.6z"/>
	<path class="st3" d="M58.8,46.1c0,0,43.8-49,87.5-1.9c0,0-16.4,79.2-25.5,103.7l-27.3,32c0,0-21.9-24.5-23.7-39.6
		C67.9,125.3,55.1,72.5,58.8,46.1z"/>
	<g id="Calque_9">
		<g>
			<defs>
				<path id="SVGID_1_" d="M58.8,46.1c0,0,43.8-49,87.5-1.9c0,0-16.4,79.2-25.5,103.7l-27.3,32c0,0-21.9-24.5-23.7-39.6
					C67.9,125.3,55.1,72.5,58.8,46.1z"/>
			</defs>
			<clipPath id="SVGID_2_">
				<use xlink:href="#SVGID_1_"  style="overflow:visible;"/>
			</clipPath>
			<rect x="58.1" y="0.5" class="st4" width="30.3" height="193"/>
			<rect x="88.4" y="-4.9" class="st5" width="33.2" height="193"/>
			<polygon class="st6" points="122.7,-6.5 160.4,-2.1 139,189.6 101.3,185.3 			"/>
			<path class="st7" d="M71.3,136c0,0,8.8-9,12.3,7.2c0,0,3.5-21.5,12.3,5.4c0,0,14.1-34.1,14.1-7.2c0,0,10.6-14.4,12.3,0l52.9-1.8
				l-31.7,55.7l-52.9,1.8l-37-5.4L37.8,145L71.3,136z"/>
			<ellipse class="st8" cx="93.4" cy="177.3" rx="17.6" ry="18.9"/>
		</g>
	</g>
</g>
<g id="BOUCHE">
	<path class="st9" d="M81,92c0,0,14.4,17,28.7,0.2c0,0,0,22.5-14.4,26.7C95.4,118.9,81,116.9,81,92z"/>
	<g>
		<g>
			<defs>
				<path id="SVGID_3_" d="M81,92c0,0,14.4,17,28.7,0.2c0,0,0,22.5-14.4,26.7C95.4,118.9,81,116.9,81,92z"/>
			</defs>
			<clipPath id="SVGID_4_">
				<use xlink:href="#SVGID_3_"  style="overflow:visible;"/>
			</clipPath>
		</g>
		<g>
			<defs>
				<path id="SVGID_5_" d="M81,92c0,0,14.4,17,28.7,0.2c0,0,0,22.5-14.4,26.7C95.4,118.9,81,116.9,81,92z"/>
			</defs>
			<use xlink:href="#SVGID_5_"  style="overflow:visible;"/>
			<clipPath id="SVGID_6_">
				<use xlink:href="#SVGID_5_"  style="overflow:visible;"/>
			</clipPath>
			<ellipse class="st10" cx="105.5" cy="114.1" rx="10.1" ry="7.3"/>
		</g>
		<g>
			<defs>
				<path id="SVGID_7_" d="M81,92c0,0,14.4,17,28.7,0.2c0,0,0,22.5-14.4,26.7C95.4,118.9,81,116.9,81,92z"/>
			</defs>
			<clipPath id="SVGID_8_">
				<use xlink:href="#SVGID_7_"  style="overflow:visible;"/>
			</clipPath>
		</g>
	</g>
</g>
<g id="YEUX">
	<path class="st11" d="M98.4,73.3c-3.6,11.5-13.1,18.4-21.1,15.5c-8-3-11.5-14.7-7.9-26.2c3.7-11.5,13.1-18.4,21.1-15.5
		C98.5,50.1,102.1,61.8,98.4,73.3L98.4,73.3z"/>
	<path class="st12" d="M86.7,47c-6.9,0-13.8,6.5-16.7,15.7c-3.5,11.2-0.2,22.6,7.5,25.4c1.2,0.4,2.4,0.7,3.6,0.7
		c6.9,0,13.8-6.5,16.7-15.7c3.5-11.2,0.2-22.6-7.5-25.4C89.2,47.3,88,47,86.7,47L86.7,47z M81.2,90.1c-1.4,0-2.7-0.2-4-0.7
		c-8.3-3.1-12-15.2-8.2-27c3.1-9.7,10.4-16.6,17.8-16.6c1.4,0,2.7,0.2,4,0.7c8.3,3.1,12,15.2,8.2,26.9
		C95.9,83.3,88.5,90.1,81.2,90.1L81.2,90.1z"/>
	<path class="st13" d="M91.4,64.8c-2.4,6-7.6,9.4-11.7,7.5c-4.1-1.9-5.5-8.3-3.1-14.3c2.4-6,7.6-9.4,11.7-7.5
		C92.3,52.4,93.7,58.8,91.4,64.8L91.4,64.8z"/>
	<path class="st12" d="M87.8,63.7c-1.2,3.2-4,4.9-6.2,4c-2.2-1-2.9-4.4-1.6-7.5c1.2-3.2,4-4.9,6.2-4C88.4,57.2,89.1,60.6,87.8,63.7
		L87.8,63.7z"/>
	<path class="st11" d="M85.3,58.1c-1.1,1.6-2.8,2.2-3.8,1.3c-1.1-0.8-1.1-2.8,0-4.4c1.1-1.6,2.8-2.2,3.8-1.3
		C86.3,54.6,86.3,56.6,85.3,58.1L85.3,58.1z"/>
	<path class="st11" d="M100.4,73.6c3.9,12.2,13.8,19.5,22.3,16.3c8.5-3.1,12.2-15.5,8.3-27.7c-3.9-12.2-13.8-19.5-22.3-16.3
		C100.3,49.1,96.5,61.5,100.4,73.6L100.4,73.6z"/>
	<path class="st12" d="M112.8,45.8c-1.3,0-2.6,0.2-3.9,0.7c-8.1,3-11.7,15.1-8,26.9c3.1,9.8,10.4,16.7,17.7,16.7l0,0
		c1.3,0,2.6-0.2,3.9-0.7c8.1-3,11.7-15.1,8-26.9C127.4,52.7,120.1,45.8,112.8,45.8L112.8,45.8z M118.6,91.3L118.6,91.3
		c-7.8,0-15.5-7.2-18.8-17.5c-4-12.4-0.1-25.2,8.7-28.4c1.4-0.5,2.8-0.8,4.2-0.8c7.8,0,15.5,7.2,18.8,17.5
		c3.9,12.5,0.1,25.2-8.7,28.4C121.5,91,120.1,91.3,118.6,91.3L118.6,91.3z"/>
	<path class="st14" d="M107,37.6c0.5-0.2,1-0.3,1.4-0.4c0.5-0.1,0.9-0.2,1.4-0.3c0.9-0.2,1.9-0.3,2.8-0.4c1.9-0.2,3.7-0.1,5.6,0.1
		c1.9,0.2,3.7,0.7,5.4,1.5c1.7,0.7,3.4,1.7,4.9,3c1.5,1.2,2.7,2.7,3.8,4.3c1.1,1.6,1.9,3.3,2.6,5.1c1.4,3.6,2.1,7.4,2.5,11.1
		c-0.7-3.7-1.8-7.4-3.4-10.7c-0.8-1.7-1.8-3.2-2.9-4.6c-1.1-1.4-2.4-2.6-3.8-3.6c-2.8-2-6.1-2.9-9.4-3c-1.7-0.1-3.3,0.1-4.9,0.4
		c-0.8,0.2-1.6,0.3-2.4,0.6c-0.4,0.1-0.8,0.2-1.2,0.4c-0.4,0.1-0.8,0.3-1.1,0.4L107,37.6L107,37.6z"/>
	<path class="st13" d="M107.9,64.7c2.5,6.4,8,9.9,12.4,8c4.3-2,5.8-8.8,3.3-15.2c-2.5-6.4-8.1-9.9-12.4-8
		C106.8,51.5,105.4,58.3,107.9,64.7L107.9,64.7z"/>
	<path class="st12" d="M111.6,63.5c1.3,3.4,4.2,5.2,6.5,4.2c2.3-1,3.1-4.6,1.7-8c-1.3-3.3-4.2-5.2-6.5-4.2
		C111,56.6,110.3,60.1,111.6,63.5L111.6,63.5z"/>
	<path class="st11" d="M114.3,57.6c1.1,1.7,2.9,2.3,4.1,1.4c1.1-0.9,1.1-2.9,0-4.6c-1.1-1.7-2.9-2.3-4.1-1.4
		C113.2,53.9,113.2,55.9,114.3,57.6L114.3,57.6z"/>
	<path class="st14" d="M94.9,41.5c-0.3-0.1-0.7-0.3-1.1-0.4c-0.4-0.1-0.8-0.3-1.2-0.4c-0.8-0.2-1.6-0.4-2.4-0.6
		c-1.6-0.3-3.3-0.5-4.9-0.4c-3.3,0.1-6.6,1-9.4,3c-1.4,1-2.7,2.2-3.8,3.6c-1.1,1.4-2.1,2.9-2.9,4.6c-1.6,3.3-2.7,7-3.4,10.7
		c0.4-3.8,1.2-7.6,2.5-11.1c0.7-1.8,1.6-3.5,2.6-5.1c1.1-1.6,2.3-3.1,3.8-4.3c1.5-1.2,3.1-2.3,4.9-3c1.7-0.7,3.6-1.2,5.4-1.5
		c1.9-0.2,3.7-0.3,5.6-0.1c0.9,0.1,1.9,0.2,2.8,0.4c0.5,0.1,0.9,0.2,1.4,0.3c0.5,0.1,0.9,0.2,1.4,0.4L94.9,41.5L94.9,41.5z"/>
</g>
</svg>
