<svg id="eOfY4qJCQNp1" xmlns="http://www.w3.org/2000/svg" xmlns:xlink="http://www.w3.org/1999/xlink" viewBox="0 0 200 200" shape-rendering="geometricPrecision" text-rendering="geometricPrecision"><style><![CDATA[#eOfY4qJCQNp33_ts {animation: eOfY4qJCQNp33_ts__ts 4000ms linear 1 normal forwards}@keyframes eOfY4qJCQNp33_ts__ts { 0% {transform: translate(100.000004px,104.272181px) scale(1,1.008693)} 65% {transform: translate(100.000004px,104.272181px) scale(1,1.008693)} 70% {transform: translate(100.000004px,104.272181px) scale(1,0.358097)} 75% {transform: translate(100.000004px,104.272181px) scale(1,0.85485)} 80% {transform: translate(100.000004px,104.272181px) scale(1,1.17385)} 85% {transform: translate(100.000004px,104.272181px) scale(1,0.85485)} 90% {transform: translate(100.000004px,104.272181px) scale(1,0.358097)} 95% {transform: translate(100.000004px,104.272181px) scale(1,1.008693)} 100% {transform: translate(100.000004px,104.272181px) scale(1,1.008693)}} #eOfY4qJCQNp53_to {animation: eOfY4qJCQNp53_to__to 4000ms linear 1 normal forwards}@keyframes eOfY4qJCQNp53_to__to { 0% {offset-distance: 0%;animation-timing-function: cubic-bezier(0.445,0.05,0.55,0.95)} 12.5% {offset-distance: 25.125813%;animation-timing-function: cubic-bezier(0.445,0.05,0.55,0.95)} 15% {offset-distance: 25.125813%;animation-timing-function: cubic-bezier(0.445,0.05,0.55,0.95)} 25% {offset-distance: 40.572166%;animation-timing-function: cubic-bezier(0.445,0.05,0.55,0.95)} 27.5% {offset-distance: 40.572166%;animation-timing-function: cubic-bezier(0.445,0.05,0.55,0.95)} 40% {offset-distance: 59.059579%;animation-timing-function: cubic-bezier(0.445,0.05,0.55,0.95)} 42.5% {offset-distance: 59.059579%;animation-timing-function: cubic-bezier(0.445,0.05,0.55,0.95)} 55% {offset-distance: 100%} 100% {offset-distance: 100%}} #eOfY4qJCQNp60_to {animation: eOfY4qJCQNp60_to__to 4000ms linear 1 normal forwards}@keyframes eOfY4qJCQNp60_to__to { 0% {transform: translate(115.739006px,61.099999px);animation-timing-function: cubic-bezier(0.445,0.05,0.55,0.95)} 12.5% {transform: translate(116.072334px,67.899999px);animation-timing-function: cubic-bezier(0.445,0.05,0.55,0.95)} 15% {transform: translate(116.072334px,67.899999px);animation-timing-function: cubic-bezier(0.445,0.05,0.55,0.95)} 25% {transform: translate(109.072334px,67.950118px);animation-timing-function: cubic-bezier(0.445,0.05,0.55,0.95)} 27.5% {transform: translate(109.072334px,67.950118px);animation-timing-function: cubic-bezier(0.445,0.05,0.55,0.95)} 40% {transform: translate(112.527666px,73.515907px);animation-timing-function: cubic-bezier(0.445,0.05,0.55,0.95)} 42.5% {transform: translate(112.527666px,73.515907px);animation-timing-function: cubic-bezier(0.445,0.05,0.55,0.95)} 55% {transform: translate(111.290034px,62.103469px)} 100% {transform: translate(111.290034px,62.103469px)}}]]></style><defs><path id="eOfY4qJCQNp2" d="M58.8,46.1c0,0,43.8-49,87.5-1.9c0,0-16.4,79.2-25.5,103.7l-27.3,32c0,0-21.9-24.5-23.7-39.6-1.9-15-14.7-67.8-11-94.2Z"/><path id="eOfY4qJCQNp3" d="M81,92c0,0,14.4,17,28.7.2c0,0,0,22.5-14.4,26.7.1,0-14.3-2-14.3-26.9Z"/><path id="eOfY4qJCQNp4" d="M81,92c0,0,14.4,17,28.7.2c0,0,0,22.5-14.4,26.7.1,0-14.3-2-14.3-26.9Z"/><path id="eOfY4qJCQNp5" d="M81,92c0,0,14.4,17,28.7.2c0,0,0,22.5-14.4,26.7.1,0-14.3-2-14.3-26.9Z"/><filter id="eOfY4qJCQNp53-filter" x="-400%" width="600%" y="-400%" height="600%"><feGaussianBlur id="eOfY4qJCQNp53-filter-drop-shadow-0-blur" in="SourceAlpha" stdDeviation="0,0"/><feOffset id="eOfY4qJCQNp53-filter-drop-shadow-0-offset" dx="0" dy="0" result="tmp"/><feFlood id="eOfY4qJCQNp53-filter-drop-shadow-0-flood" flood-color="#050505"/><feComposite id="eOfY4qJCQNp53-filter-drop-shadow-0-composite" operator="in" in2="tmp"/><feMerge id="eOfY4qJCQNp53-filter-drop-shadow-0-merge"><feMergeNode id="eOfY4qJCQNp53-filter-drop-shadow-0-merge-node-1"/><feMergeNode id="eOfY4qJCQNp53-filter-drop-shadow-0-merge-node-2" in="SourceGraphic"/></feMerge></filter></defs><g><g><g><path d="M141.3,86.9c5.2,0,10.1,2.3,15.2,3.1c3.4.5,18.2.8,15.8,7.5-.9,2.4-4.9,4.9-6.9,6.2-2.4,1.6-5.1,2.7-7.8,3.7-5,1.9-9.8,4-14.3,7c1.5.6,2.9,1.2,4.4,1.8-.6-1.1-.9-2.2-1-3.5-1.7.7-3.4,1.4-5.1,2.1.2.7.5,1.4.7,2.2c1.7-.4,3.3-.9,5-1.3-.2-.2-.4-.4-.6-.6-1.3,1-2.5,1.9-3.8,2.9c2,.4,3.1,1.5,3.5,3.3c1.2-1.2,2.5-2.5,3.7-3.7-1.8-.3-2.5-4-3.5-5.3-1.1-1.5-2.5-2.2-4.3-2.6-1.9-.4-3.8.9-3.8,2.9c0,5.7,4.8,8.4,9.9,8.8c3.9.3,3.8-5.7,0-6-2.1.2-3.4-.8-3.9-2.8-1.3,1-2.5,1.9-3.8,2.9c1.7.4,2.4,4.1,3.4,5.4c1.2,1.5,2.5,2.2,4.4,2.6c2.2.4,4.3-1.3,3.7-3.7-1-4-3.9-6.2-7.7-7.5-1.7-.6-4,1-3.8,2.9.2,2.1.8,3.5,2.4,4.9c1.5,1.3,4.6,1.1,5-1.3.5-3.3-.1-5.5-2.3-8-1.6-1.9-5.4-.4-5.1,2.1.2,1.8.5,3.3,1.2,5.1.7,1.7,2.6,3,4.4,1.8c7.2-4.6,15.9-6.3,22.9-11.1c4.4-3.1,10.9-8,9.6-14.2-1.3-6.1-8.6-8.3-13.9-9.2-4-.6-8.1-.9-12.1-1.9-3.9-1-7.4-2.2-11.4-2.2-3.9-.3-3.9,5.7-.1,5.7v0Z" fill="#ff0"/></g></g><g><g><path d="M141.4,85.3c5.5,0,10.7,2.5,16.1,3.3c4.4.6,19.8,1.2,16.1,9.7-2.3,5.3-10.8,8.7-15.7,10.5s-9.5,3.9-14,6.7c.7.3,1.5.6,2.2.9-.6-1.2-.9-2.5-1-3.9-.9.4-1.7.7-2.6,1.1.4,1.2.7,2.4,1.1,3.6.8-.2,1.7-.4,2.5-.7-.4-.6-.7-1.1-1.1-1.7-.6.5-1.3,1-1.9,1.4c2.5.5,4,2,4.6,4.4.6-.6,1.2-1.2,1.8-1.8-2.5-.5-3-4.7-4.6-6.4-.9-1-1.8-1.4-3.2-1.7-.9-.2-1.9.4-1.9,1.4c0,4.8,4.1,7,8.4,7.3c1.9.2,1.9-2.9,0-3-2.9.1-4.7-1.3-5.4-4.3-.6.5-1.3,1-1.9,1.4c4,.9,2.8,7.1,7.8,8c1.1.2,2.1-.7,1.8-1.8-.9-3.5-3.3-5.4-6.7-6.5-.9-.3-2,.5-1.9,1.4.2,1.7.6,2.7,1.9,3.8.8.7,2.3.5,2.5-.7.5-2.7-.1-4.5-1.9-6.6-.8-.9-2.7-.2-2.6,1.1.2,1.7.5,3.1,1.1,4.7.3.8,1.3,1.5,2.2.9c7.2-4.6,15.9-6.2,22.9-11c3.8-2.6,10-7,9-12.4-1.1-5.5-8.2-7.4-12.8-8.2-4-.7-8.1-.9-12.1-2-3.7-1-7.1-2.2-11-2.2-1.6.3-1.6,3.3.3,3.3v0Z"/></g></g><g><g><path d="M57.2,80.4c-4,.3-8,.8-12,.8-5.2.1-8.1-1.6-9.6-6.6-2.5-8.1-7.2-18.9-5.7-27.4.5-2.7-1.9-4.4-4.4-3.4-.6.3-1.2.5-1.8.8c1.2,1.6,2.4,3.1,3.6,4.7c1.9-2,3.9-2.7,6.7-2.6-1-1.3-1.9-2.5-2.9-3.8.2-.5-6.4,1.1-7.1.9.7.7,1.4,1.4,2.1,2.1c0,.5,0,.9,0,1.4-1.3-1-2.5-1.9-3.8-2.9.4-.5.8-1.1,1.3-1.6c1,1,2,2,3,3c1.1-.4,2.2-.3,3.3.2c3.8.9,5.4-4.9,1.6-5.8-5-1.2-10.4-.4-10.9,5.6-.2,1.7,1.5,2.9,3,3c2.9.2,4.4-1.7,4.7-4.4.2-2.1-2.1-3.2-3.8-2.9-4.2.7-6.9,6.6-1.7,8.2c2.6.8,6.4-.6,9-1.2s4.4-1.4,5.2-4c.6-1.9-1-3.7-2.9-3.8-4.3-.2-7.9,1.3-10.9,4.3-2.6,2.6.7,6,3.6,4.7.6-.3,1.2-.5,1.8-.8-1.5-1.1-2.9-2.3-4.4-3.4-1,6,.3,11.5,1.9,17.3c1.5,5.5,2.7,11.6,5.1,16.8c4.8,10.1,17.1,7.3,26.1,6.7c3.8-.2,3.8-6.2-.1-5.9v0Z" fill="#ff0"/></g></g><ellipse rx="1.8" ry="3.6" transform="translate(34.3 39)" stroke="#ff0" stroke-width="0.75" stroke-miterlimit="10"/><g><g><path d="M57.2,81.9c-4,.3-8,.8-12,.8-5.8.1-9.3-2-11.1-7.7-2.6-8.4-7.2-19.4-5.7-28.2.2-1.4-1-2.2-2.2-1.7-.6.3-1.2.5-1.8.8.6.8,1.2,1.6,1.8,2.4c2.2-2.3,4.6-3.1,7.7-3-.5-.6-1-1.3-1.4-1.9-.3,1-3.1,1.1-3.9,1.2-.6.1-1.2.2-1.8.3-.8-.1-1.2.2-1.2.9-.6-.5-1.3-1-1.9-1.4-.1,0-.2-.1-.2-.1.5.5,1,1,1.5,1.5c1.5-1.9,3.2-2.3,5.2-1.2c1.9.5,2.7-2.4.8-2.9-3.9-.9-8.6-.8-9,4.1-.1.8.8,1.4,1.5,1.5c2.1.1,3-.9,3.2-2.9.1-1.1-1-1.6-1.9-1.4-2.9.5-5.2,3.7-1.7,5.3c2,.9,6.2-.7,8.2-1.2c2.1-.5,3.5-.9,4.1-3c.3-1-.5-1.9-1.4-1.9-3.9-.1-7.1,1.1-9.9,3.9-1.3,1.3.3,3,1.8,2.4.6-.3,1.2-.5,1.8-.8-.7-.6-1.5-1.1-2.2-1.7-1,5.7.4,11,1.9,16.5s2.6,11.5,5,16.6c4.4,9.3,16.5,6.4,24.7,5.7c2.1,0,2.1-3,.1-2.9v0Z"/></g></g></g><g><path d="M58.8,44.6c0,0,43.8-49.6,87.5-1.9c0,0-16.4,80.1-25.5,104.9L93.4,180c0,0-21.9-24.8-23.7-40-1.8-15.3-14.6-68.7-10.9-95.4Z" fill="#ff9e10" stroke="#ff0" stroke-width="6" stroke-miterlimit="10"/><path d="M58.8,46.1c0,0,43.8-49,87.5-1.9c0,0-16.4,79.2-25.5,103.7l-27.3,32c0,0-21.9-24.5-23.7-39.6-1.9-15-14.7-67.8-11-94.2Z" fill="#ff9e10" stroke="#000" stroke-width="3" stroke-miterlimit="10"/><g><g><g clip-path="url(#eOfY4qJCQNp31)"><rect width="30.3" height="193" rx="0" ry="0" transform="translate(58.1 0.5)" fill="#ffd400"/><rect width="33.2" height="193" rx="0" ry="0" transform="translate(88.4-4.9)" fill="#ffb000"/><polygon points="122.7,-6.5 160.4,-2.1 139,189.6 101.3,185.3" fill="#ff7900"/><path d="M71.3,136c0,0,8.8-9,12.3,7.2c0,0,3.5-21.5,12.3,5.4c0,0,14.1-34.1,14.1-7.2c0,0,10.6-14.4,12.3,0l52.9-1.8-31.7,55.7-52.9,1.8-37-5.4L37.8,145l33.5-9Z" fill="#f5cdab" stroke="#000" stroke-miterlimit="10"/><ellipse rx="17.6" ry="18.9" transform="translate(93.4 177.3)" fill="#0c0601"/><clipPath id="eOfY4qJCQNp31"><use xlink:href="#eOfY4qJCQNp2"/></clipPath></g></g></g></g><g id="eOfY4qJCQNp33_ts" transform="translate(100.000004,104.272181) scale(1,1.008693)"><g transform="translate(-98.300003,-106.699997)"><path d="M81,92c0,0,14.4,17,28.7.2c0,0,0,22.5-14.4,26.7.1,0-14.3-2-14.3-26.9Z" fill="#020202"/><g><g><g><clipPath><use xlink:href="#eOfY4qJCQNp3"/></clipPath></g></g><g><use xlink:href="#eOfY4qJCQNp4"/><g clip-path="url(#eOfY4qJCQNp44)"><ellipse rx="10.1" ry="7.3" transform="translate(105.5 114.1)" fill="#ff7900"/><clipPath id="eOfY4qJCQNp44"><use xlink:href="#eOfY4qJCQNp4"/></clipPath></g></g><g><g><clipPath><use xlink:href="#eOfY4qJCQNp5"/></clipPath></g></g></g></g></g><g><path d="M98.4,73.3C94.8,84.8,85.3,91.7,77.3,88.8c-8-3-11.5-14.7-7.9-26.2c3.7-11.5,13.1-18.4,21.1-15.5c8,3,11.6,14.7,7.9,26.2v0Z" fill="#fff"/><path d="M86.7,47C79.8,47,72.9,53.5,70,62.7c-3.5,11.2-.2,22.6,7.5,25.4c1.2.4,2.4.7,3.6.7c6.9,0,13.8-6.5,16.7-15.7c3.5-11.2.2-22.6-7.5-25.4-1.1-.4-2.3-.7-3.6-.7v0ZM81.2,90.1c-1.4,0-2.7-.2-4-.7-8.3-3.1-12-15.2-8.2-27c3.1-9.7,10.4-16.6,17.8-16.6c1.4,0,2.7.2,4,.7c8.3,3.1,12,15.2,8.2,26.9-3.1,9.9-10.5,16.7-17.8,16.7v0Z" fill="#333132"/><g id="eOfY4qJCQNp53_to" style="offset-path:path('M83.966873,61.400002C83.966873,61.400002,83.921196,68.403855,83.921196,68.403855C83.921196,68.403855,83.921196,68.403855,83.921196,68.403855C83.922132,68.404154,80.591719,67.341982,79.859022,68.624503C79.859022,68.624503,79.859022,68.624503,79.859022,68.624503C79.131022,69.898787,81,73.517117,81,73.517117C81,73.517117,81,73.517117,81,73.517117C81,73.517117,81.000004,62.104679,81.000004,62.104679');offset-rotate:0deg"><g transform="translate(-83.966873,-61.400001)" filter="url(#eOfY4qJCQNp53-filter)"><path d="M91.4,64.8c-2.4,6-7.6,9.4-11.7,7.5s-5.5-8.3-3.1-14.3s7.6-9.4,11.7-7.5c4,1.9,5.4,8.3,3.1,14.3v0Z" fill="#ffb000"/><path d="M87.8,63.7c-1.2,3.2-4,4.9-6.2,4-2.2-1-2.9-4.4-1.6-7.5c1.2-3.2,4-4.9,6.2-4c2.2,1,2.9,4.4,1.6,7.5v0Z" fill="#333132"/><path d="M85.3,58.1c-1.1,1.6-2.8,2.2-3.8,1.3-1.1-.8-1.1-2.8,0-4.4s2.8-2.2,3.8-1.3s1,2.9,0,4.4v0Z" fill="#fff"/></g></g><path d="M100.4,73.6c3.9,12.2,13.8,19.5,22.3,16.3c8.5-3.1,12.2-15.5,8.3-27.7s-13.8-19.5-22.3-16.3c-8.4,3.2-12.2,15.6-8.3,27.7v0Z" fill="#fff"/><path d="M112.8,45.8c-1.3,0-2.6.2-3.9.7-8.1,3-11.7,15.1-8,26.9c3.1,9.8,10.4,16.7,17.7,16.7v0c1.3,0,2.6-.2,3.9-.7c8.1-3,11.7-15.1,8-26.9-3.1-9.8-10.4-16.7-17.7-16.7v0Zm5.8,45.5v0c-7.8,0-15.5-7.2-18.8-17.5-4-12.4-.1-25.2,8.7-28.4c1.4-.5,2.8-.8,4.2-.8c7.8,0,15.5,7.2,18.8,17.5c3.9,12.5.1,25.2-8.7,28.4-1.3.5-2.7.8-4.2.8v0Z" fill="#333132"/><path d="M107,37.6c.5-.2,1-.3,1.4-.4.5-.1.9-.2,1.4-.3.9-.2,1.9-.3,2.8-.4c1.9-.2,3.7-.1,5.6.1s3.7.7,5.4,1.5c1.7.7,3.4,1.7,4.9,3c1.5,1.2,2.7,2.7,3.8,4.3s1.9,3.3,2.6,5.1c1.4,3.6,2.1,7.4,2.5,11.1-.7-3.7-1.8-7.4-3.4-10.7-.8-1.7-1.8-3.2-2.9-4.6s-2.4-2.6-3.8-3.6c-2.8-2-6.1-2.9-9.4-3-1.7-.1-3.3.1-4.9.4-.8.2-1.6.3-2.4.6-.4.1-.8.2-1.2.4-.4.1-.8.3-1.1.4L107,37.6v0Z" fill="#333132" stroke="#000" stroke-miterlimit="10"/><g id="eOfY4qJCQNp60_to" transform="translate(115.739006,61.099999)"><g transform="translate(-115.739006,-61.099998)"><path d="M107.9,64.7c2.5,6.4,8,9.9,12.4,8c4.3-2,5.8-8.8,3.3-15.2s-8.1-9.9-12.4-8c-4.4,2-5.8,8.8-3.3,15.2v0Z" fill="#ffb000"/><path d="M111.6,63.5c1.3,3.4,4.2,5.2,6.5,4.2s3.1-4.6,1.7-8c-1.3-3.3-4.2-5.2-6.5-4.2-2.3,1.1-3,4.6-1.7,8v0Z" fill="#333132"/><path d="M114.3,57.6c1.1,1.7,2.9,2.3,4.1,1.4c1.1-.9,1.1-2.9,0-4.6s-2.9-2.3-4.1-1.4c-1.1.9-1.1,2.9,0,4.6v0Z" fill="#fff"/></g></g><path d="M94.9,41.5c-.3-.1-.7-.3-1.1-.4s-.8-.3-1.2-.4c-.8-.2-1.6-.4-2.4-.6-1.6-.3-3.3-.5-4.9-.4-3.3.1-6.6,1-9.4,3-1.4,1-2.7,2.2-3.8,3.6s-2.1,2.9-2.9,4.6c-1.6,3.3-2.7,7-3.4,10.7.4-3.8,1.2-7.6,2.5-11.1.7-1.8,1.6-3.5,2.6-5.1c1.1-1.6,2.3-3.1,3.8-4.3s3.1-2.3,4.9-3c1.7-.7,3.6-1.2,5.4-1.5c1.9-.2,3.7-.3,5.6-.1.9.1,1.9.2,2.8.4.5.1.9.2,1.4.3s.9.2,1.4.4l-1.3,3.9v0Z" fill="#333132" stroke="#000" stroke-miterlimit="10"/></g></svg>